<mxfile host="app.diagrams.net" modified="2020-12-10T03:06:28.897Z" agent="5.0 (X11)" etag="XEv9Ylb7VG2w8HehPWQf" version="14.0.0" type="github">
  <diagram id="C5RBs43oDa-KdzZeNtuy" name="Page-1">
    <mxGraphModel dx="1422" dy="775" grid="1" gridSize="10" guides="1" tooltips="1" connect="1" arrows="1" fold="1" page="1" pageScale="1" pageWidth="827" pageHeight="1169" math="0" shadow="0">
      <root>
        <mxCell id="WIyWlLk6GJQsqaUBKTNV-0" />
        <mxCell id="WIyWlLk6GJQsqaUBKTNV-1" parent="WIyWlLk6GJQsqaUBKTNV-0" />
        <mxCell id="JgIg5vbqbzH37JW_ZWby-6" value="" style="edgeStyle=orthogonalEdgeStyle;rounded=0;orthogonalLoop=1;jettySize=auto;html=1;shadow=0;" edge="1" parent="WIyWlLk6GJQsqaUBKTNV-1" source="WIyWlLk6GJQsqaUBKTNV-3" target="WIyWlLk6GJQsqaUBKTNV-6">
          <mxGeometry relative="1" as="geometry" />
        </mxCell>
        <mxCell id="WIyWlLk6GJQsqaUBKTNV-3" value="Launch App" style="rounded=1;whiteSpace=wrap;html=1;fontSize=12;glass=0;strokeWidth=1;shadow=0;" parent="WIyWlLk6GJQsqaUBKTNV-1" vertex="1">
          <mxGeometry x="160" y="80" width="120" height="40" as="geometry" />
        </mxCell>
        <mxCell id="JgIg5vbqbzH37JW_ZWby-1" value="" style="edgeStyle=orthogonalEdgeStyle;rounded=0;orthogonalLoop=1;jettySize=auto;html=1;" edge="1" parent="WIyWlLk6GJQsqaUBKTNV-1" source="WIyWlLk6GJQsqaUBKTNV-6" target="WIyWlLk6GJQsqaUBKTNV-7">
          <mxGeometry relative="1" as="geometry" />
        </mxCell>
        <mxCell id="WIyWlLk6GJQsqaUBKTNV-6" value="&lt;div&gt;Enter&lt;/div&gt;&lt;div&gt;zipcode&lt;br&gt;&lt;/div&gt;" style="ellipse;whiteSpace=wrap;html=1;shadow=0;fontFamily=Helvetica;fontSize=12;align=center;strokeWidth=1;spacing=6;spacingTop=-4;" parent="WIyWlLk6GJQsqaUBKTNV-1" vertex="1">
          <mxGeometry x="369" y="70" width="61" height="60" as="geometry" />
        </mxCell>
        <mxCell id="JgIg5vbqbzH37JW_ZWby-7" value="" style="edgeStyle=orthogonalEdgeStyle;rounded=0;orthogonalLoop=1;jettySize=auto;html=1;shadow=0;" edge="1" parent="WIyWlLk6GJQsqaUBKTNV-1" source="WIyWlLk6GJQsqaUBKTNV-7" target="JgIg5vbqbzH37JW_ZWby-3">
          <mxGeometry relative="1" as="geometry" />
        </mxCell>
        <mxCell id="WIyWlLk6GJQsqaUBKTNV-7" value="&lt;div&gt;Show Results&lt;/div&gt;" style="rounded=1;whiteSpace=wrap;html=1;fontSize=12;glass=0;strokeWidth=1;shadow=0;" parent="WIyWlLk6GJQsqaUBKTNV-1" vertex="1">
          <mxGeometry x="339.5" y="180" width="120" height="40" as="geometry" />
        </mxCell>
        <mxCell id="JgIg5vbqbzH37JW_ZWby-10" value="" style="edgeStyle=orthogonalEdgeStyle;rounded=0;orthogonalLoop=1;jettySize=auto;html=1;shadow=0;" edge="1" parent="WIyWlLk6GJQsqaUBKTNV-1" source="JgIg5vbqbzH37JW_ZWby-3" target="JgIg5vbqbzH37JW_ZWby-9">
          <mxGeometry relative="1" as="geometry" />
        </mxCell>
        <mxCell id="JgIg5vbqbzH37JW_ZWby-3" value="&lt;div&gt;Choose &lt;br&gt;&lt;/div&gt;&lt;div&gt;Food Bank&lt;/div&gt;" style="rhombus;whiteSpace=wrap;html=1;" vertex="1" parent="WIyWlLk6GJQsqaUBKTNV-1">
          <mxGeometry x="344.5" y="270" width="110" height="80" as="geometry" />
        </mxCell>
        <mxCell id="JgIg5vbqbzH37JW_ZWby-12" value="" style="edgeStyle=orthogonalEdgeStyle;rounded=0;orthogonalLoop=1;jettySize=auto;html=1;shadow=0;" edge="1" parent="WIyWlLk6GJQsqaUBKTNV-1" source="JgIg5vbqbzH37JW_ZWby-9" target="JgIg5vbqbzH37JW_ZWby-11">
          <mxGeometry relative="1" as="geometry" />
        </mxCell>
        <mxCell id="JgIg5vbqbzH37JW_ZWby-20" value="" style="edgeStyle=orthogonalEdgeStyle;rounded=0;orthogonalLoop=1;jettySize=auto;html=1;shadow=0;startArrow=none;startFill=0;" edge="1" parent="WIyWlLk6GJQsqaUBKTNV-1" source="JgIg5vbqbzH37JW_ZWby-9" target="JgIg5vbqbzH37JW_ZWby-17">
          <mxGeometry relative="1" as="geometry">
            <Array as="points">
              <mxPoint x="400" y="480" />
              <mxPoint x="400" y="480" />
            </Array>
          </mxGeometry>
        </mxCell>
        <mxCell id="JgIg5vbqbzH37JW_ZWby-9" value="View Details" style="rounded=1;whiteSpace=wrap;html=1;fontSize=12;glass=0;strokeWidth=1;shadow=0;" vertex="1" parent="WIyWlLk6GJQsqaUBKTNV-1">
          <mxGeometry x="339.5" y="400" width="120" height="40" as="geometry" />
        </mxCell>
        <mxCell id="JgIg5vbqbzH37JW_ZWby-11" value="Back" style="rounded=1;whiteSpace=wrap;html=1;fontSize=12;glass=0;strokeWidth=1;shadow=0;" vertex="1" parent="WIyWlLk6GJQsqaUBKTNV-1">
          <mxGeometry x="520" y="400" width="80" height="40" as="geometry" />
        </mxCell>
        <mxCell id="JgIg5vbqbzH37JW_ZWby-15" value="" style="curved=1;endArrow=classic;html=1;shadow=0;exitX=0.5;exitY=0;exitDx=0;exitDy=0;entryX=1;entryY=0.5;entryDx=0;entryDy=0;" edge="1" parent="WIyWlLk6GJQsqaUBKTNV-1" source="JgIg5vbqbzH37JW_ZWby-11" target="WIyWlLk6GJQsqaUBKTNV-7">
          <mxGeometry width="50" height="50" relative="1" as="geometry">
            <mxPoint x="520" y="360" as="sourcePoint" />
            <mxPoint x="570" y="310" as="targetPoint" />
            <Array as="points">
              <mxPoint x="560" y="350" />
              <mxPoint x="560" y="310" />
              <mxPoint x="560" y="240" />
              <mxPoint x="560" y="210" />
              <mxPoint x="550" y="200" />
              <mxPoint x="535" y="200" />
            </Array>
          </mxGeometry>
        </mxCell>
        <mxCell id="JgIg5vbqbzH37JW_ZWby-16" value="Set Reminder" style="rounded=1;whiteSpace=wrap;html=1;fontSize=12;glass=0;strokeWidth=1;shadow=0;" vertex="1" parent="WIyWlLk6GJQsqaUBKTNV-1">
          <mxGeometry x="264.5" y="530" width="90" height="40" as="geometry" />
        </mxCell>
        <mxCell id="JgIg5vbqbzH37JW_ZWby-17" value="Volunteer" style="rounded=1;whiteSpace=wrap;html=1;fontSize=12;glass=0;strokeWidth=1;shadow=0;" vertex="1" parent="WIyWlLk6GJQsqaUBKTNV-1">
          <mxGeometry x="359.5" y="530" width="80" height="40" as="geometry" />
        </mxCell>
        <mxCell id="JgIg5vbqbzH37JW_ZWby-18" value="Donate" style="rounded=1;whiteSpace=wrap;html=1;fontSize=12;glass=0;strokeWidth=1;shadow=0;" vertex="1" parent="WIyWlLk6GJQsqaUBKTNV-1">
          <mxGeometry x="454.5" y="530" width="80" height="40" as="geometry" />
        </mxCell>
        <mxCell id="JgIg5vbqbzH37JW_ZWby-21" value="" style="endArrow=none;html=1;shadow=0;" edge="1" parent="WIyWlLk6GJQsqaUBKTNV-1">
          <mxGeometry width="50" height="50" relative="1" as="geometry">
            <mxPoint x="320" y="480" as="sourcePoint" />
            <mxPoint x="400.5" y="480" as="targetPoint" />
            <Array as="points">
              <mxPoint x="370.5" y="480" />
            </Array>
          </mxGeometry>
        </mxCell>
        <mxCell id="JgIg5vbqbzH37JW_ZWby-22" value="" style="endArrow=none;html=1;shadow=0;" edge="1" parent="WIyWlLk6GJQsqaUBKTNV-1">
          <mxGeometry width="50" height="50" relative="1" as="geometry">
            <mxPoint x="400" y="480" as="sourcePoint" />
            <mxPoint x="480.5" y="480" as="targetPoint" />
            <Array as="points">
              <mxPoint x="450.5" y="480" />
            </Array>
          </mxGeometry>
        </mxCell>
        <mxCell id="JgIg5vbqbzH37JW_ZWby-23" value="" style="endArrow=classic;html=1;shadow=0;entryX=0.5;entryY=0;entryDx=0;entryDy=0;" edge="1" parent="WIyWlLk6GJQsqaUBKTNV-1" target="JgIg5vbqbzH37JW_ZWby-16">
          <mxGeometry width="50" height="50" relative="1" as="geometry">
            <mxPoint x="320" y="480" as="sourcePoint" />
            <mxPoint x="300" y="460" as="targetPoint" />
          </mxGeometry>
        </mxCell>
        <mxCell id="JgIg5vbqbzH37JW_ZWby-24" value="" style="endArrow=classic;html=1;shadow=0;entryX=0.5;entryY=0;entryDx=0;entryDy=0;" edge="1" parent="WIyWlLk6GJQsqaUBKTNV-1" target="JgIg5vbqbzH37JW_ZWby-18">
          <mxGeometry width="50" height="50" relative="1" as="geometry">
            <mxPoint x="480" y="480" as="sourcePoint" />
            <mxPoint x="500" y="530" as="targetPoint" />
          </mxGeometry>
        </mxCell>
      </root>
    </mxGraphModel>
  </diagram>
</mxfile>
